Coordinates
version=1
nRows=6
nColumns=36
inDegrees=yes

Units are S.I. units (second, meters, Newtons, ...)
If the header above contains a line with 'inDegrees', this indicates whether rotational values are in degrees (yes) or radians (no).

endheader
time	pelvis_tilt	pelvis_list	pelvis_rotation	pelvis_tx	pelvis_ty	pelvis_tz	hip_flexion_r	hip_adduction_r	hip_rotation_r	knee_angle_r	knee_angle_r_beta	ankle_angle_r	subtalar_angle_r	mtp_angle_r	hip_flexion_l	hip_adduction_l	hip_rotation_l	knee_angle_l	knee_angle_l_beta	ankle_angle_l	subtalar_angle_l	mtp_angle_l	lumbar_extension	lumbar_bending	lumbar_rotation	arm_flex_r	arm_add_r	arm_rot_r	elbow_flex_r	pro_sup_r	arm_flex_l	arm_add_l	arm_rot_l	elbow_flex_l	pro_sup_l
      0.35000000	      1.10454444	     -3.48969286	     -4.97296505	      0.22346809	      0.96400962	     -0.16259018	     -2.33996351	      7.96697716	      0.85059512	      4.21502349	      0.07356604	      8.69677564	      1.73575116	     -6.45325009	     22.38382651	     -4.46705344	     -3.74668670	     42.89619213	      0.74867979	      1.35147861	    -16.33414866	     -6.45325009	     -7.48021541	      3.24144247	      4.78370427	      0.61451818	     -7.78618056	     -2.32497519	     37.68996380	    111.27208102	      1.07164974	     -2.99040428	     -9.38021721	     25.79720515	    106.14994320
      0.36000000	      1.03738975	     -3.43661386	     -5.36191398	      0.23386858	      0.96371371	     -0.16088758	     -3.26202257	      7.93310049	      1.17872277	      3.71667836	      0.06486827	      9.05294354	      1.99458372	     -6.47264292	     22.93674387	     -4.53157747	     -3.77001510	     39.73757652	      0.69355155	      0.94042567	    -15.79639401	     -6.47264292	     -7.54946970	      2.78498126	      5.00952396	      1.07972450	     -7.85696441	     -1.89113636	     38.11457649	    111.29066390	      1.28753242	     -3.08016765	     -9.66321563	     25.77577841	    106.14075892
      0.37000000	      0.88781176	     -3.39947998	     -5.76687063	      0.24427261	      0.96301630	     -0.15918064	     -4.03738929	      7.92339250	      1.52459767	      3.33058168	      0.05812962	      9.45401038	      2.20233198	     -6.48839490	     23.49539110	     -4.62133872	     -3.73170154	     36.49197604	      0.63690513	      0.46716662	    -15.17025557	     -6.48839490	     -7.54013063	      2.33569302	      5.21067638	      1.55224821	     -7.87822429	     -1.39835754	     38.52446941	    111.21059219	      1.45124050	     -3.15866030	     -9.91232144	     25.78134452	    106.03737911
      0.38000000	      0.94574393	     -3.42676273	     -6.20524960	      0.25474605	      0.96233540	     -0.15745033	     -5.06756943	      7.95952066	      1.94251475	      2.92646867	      0.05107651	      9.90920743	      2.40227256	     -6.53307697	     23.69567634	     -4.79919934	     -3.78282503	     33.13303311	      0.57828052	     -0.13074935	    -14.71744444	     -6.53307697	     -7.76859696	      1.91233245	      5.29168480	      2.23785853	     -8.04710780	     -0.19343593	     38.69941123	    111.18640624	      1.56994083	     -3.22898774	    -10.53048778	     25.93403056	    105.95853358
      0.39000000	      0.90268875	     -3.43638512	     -6.67717062	      0.26521080	      0.96125901	     -0.15565720	     -5.91476975	      7.99250515	      2.41451560	      2.67810847	      0.04674181	     10.49038305	      2.34121582	     -6.55140936	     23.94649714	     -5.01475775	     -3.90101494	     29.79006362	      0.51993469	     -0.55601645	    -13.69890248	     -6.55140936	     -7.89879974	      1.46664764	      5.52206415	      2.76244472	     -8.07427490	      0.34680229	     39.00490789	    111.11790284	      1.75243447	     -3.36239211	    -10.80068459	     26.00991615	    105.87193811
      0.40000000	      0.94142961	     -3.53319487	     -7.16778043	      0.27570785	      0.96003722	     -0.15385568	     -6.89666155	      8.10249264	      3.10332126	      2.38051840	      0.04154788	     10.86376997	      2.03590232	     -6.62576195	     24.02314227	     -5.33595280	     -4.01704571	     26.46083251	      0.46182865	     -0.72699013	    -12.51656450	     -6.62576195	     -8.12476637	      1.08420016	      5.49336767	      3.60220981	     -8.23947503	      1.88054333	     38.94133979	    111.10836179	      1.74889254	     -3.45894508	    -11.65200178	     26.34313701	    105.89164297
